<?xml version="1.0" standalone="no"?>
<!DOCTYPE svg PUBLIC "-//W3C//DTD SVG 20010904//EN"
 "http://www.w3.org/TR/2001/REC-SVG-20010904/DTD/svg10.dtd">
<svg version="1.0" xmlns="http://www.w3.org/2000/svg"
 width="1600.000000pt" height="1600.000000pt" viewBox="0 0 1600.000000 1600.000000"
 preserveAspectRatio="xMidYMid meet">

<g transform="translate(0.000000,1600.000000) scale(0.100000,-0.100000)"
fill="#000000" stroke="none">
<path d="M7730 15910 c-276 -10 -629 -40 -825 -70 -452 -70 -747 -133 -1089
-231 -2501 -719 -4507 -2643 -5326 -5109 -198 -596 -309 -1131 -377 -1830 -22
-224 -25 -1064 -5 -1290 85 -953 292 -1765 657 -2590 491 -1108 1234 -2090
2172 -2872 1129 -941 2482 -1544 3933 -1753 978 -140 1999 -95 2955 132 2754
652 4954 2731 5765 5448 323 1083 408 2266 245 3391 -169 1164 -592 2269
-1238 3239 -694 1042 -1602 1887 -2697 2515 -148 84 -549 286 -705 354 -722
316 -1489 525 -2255 616 -254 30 -423 40 -870 54 -63 2 -216 0 -340 -4z
m-1457 -3757 c3 -10 76 -200 162 -423 86 -223 245 -632 352 -910 107 -278 271
-703 365 -945 93 -242 215 -557 270 -700 55 -143 104 -270 109 -283 l9 -22
-561 2 -562 3 -59 155 c-32 85 -85 225 -118 310 -46 121 -347 917 -379 1004
-5 13 -25 -29 -69 -145 -63 -170 -406 -1074 -468 -1236 l-36 -93 -269 0 c-148
0 -269 2 -269 5 0 5 164 413 675 1685 367 913 638 1586 642 1598 4 8 34 12
103 12 84 0 98 -2 103 -17z m6827 -132 l0 -148 -227 -6 c-296 -8 -365 -24
-485 -115 -52 -39 -135 -137 -163 -191 -43 -85 -45 -138 -45 -1448 l0 -1243
-555 0 -555 0 0 1123 c0 668 -4 1168 -10 1237 -24 276 -62 394 -151 474 -56
51 -170 109 -254 131 -75 19 -264 35 -417 35 l-118 0 0 150 0 150 1490 0 1490
0 0 -149z m-2260 -3809 c163 -64 257 -206 268 -405 8 -155 -26 -266 -110 -362
-82 -93 -181 -135 -318 -135 -146 0 -245 46 -330 152 -66 82 -92 153 -97 268
-6 114 7 193 46 276 51 110 142 186 260 220 68 20 213 12 281 -14z m-7903
-382 c90 -217 173 -416 183 -442 l20 -48 -69 0 -69 0 -52 130 -52 130 -187 0
-187 0 -49 -130 -50 -130 -62 0 c-35 0 -63 2 -63 4 0 18 342 871 352 878 7 4
37 7 67 6 l54 -3 164 -395z m721 8 l2 -388 220 0 220 0 0 -55 0 -55 -285 0
-285 0 0 438 c0 241 3 441 6 444 3 4 31 6 62 5 l57 -2 3 -387z m1430 335 l3
-53 -220 0 -221 0 0 -140 0 -140 200 0 200 0 0 -55 0 -55 -200 0 -200 0 0
-140 0 -140 228 -2 227 -3 3 -52 3 -53 -290 0 -291 0 0 438 c0 241 3 442 7
445 4 4 128 6 277 5 l271 -3 3 -52z m690 30 c6 -16 65 -190 131 -388 66 -198
120 -357 121 -354 0 4 36 112 81 240 44 129 101 295 126 369 25 74 53 141 62
148 10 8 39 12 84 10 37 -1 67 -3 67 -3 0 0 11 -97 24 -215 14 -118 34 -298
45 -400 12 -102 23 -204 27 -227 l5 -43 -58 0 -58 0 -39 293 c-22 160 -44 326
-50 366 l-12 75 -58 -165 c-58 -165 -92 -262 -162 -461 l-38 -108 -55 0 -56 0
-119 348 c-65 191 -123 358 -129 372 -8 20 -19 -51 -53 -330 -24 -195 -43
-363 -44 -372 0 -15 -10 -18 -60 -18 l-61 0 6 33 c3 17 23 214 45 436 23 222
43 408 46 413 3 4 43 8 88 8 82 0 84 -1 94 -27z m1902 -418 l0 -445 -60 0 -60
0 0 438 c0 241 2 441 5 444 3 3 30 6 60 7 l55 2 0 -446z m571 434 c9 -4 119
-163 245 -353 l229 -345 3 353 2 353 55 2 55 1 0 -445 0 -445 -67 1 -68 0
-225 341 -225 340 -3 -341 -2 -341 -60 0 -60 0 0 438 c0 241 3 442 7 446 9 9
93 5 114 -5z m1679 -44 l0 -55 -242 -2 -243 -3 -3 -137 -3 -138 216 0 215 0 0
-55 0 -55 -215 0 -215 0 0 -195 0 -195 -60 0 -60 0 0 438 c0 241 3 442 7 445
3 4 141 7 305 7 l298 0 0 -55z m1921 46 c131 -12 189 -43 231 -126 11 -22 23
-67 26 -101 4 -51 0 -71 -20 -116 -14 -30 -39 -65 -56 -77 -46 -32 -113 -60
-147 -61 -27 -1 -28 -2 -11 -13 69 -42 153 -149 275 -349 l23 -38 -75 0 -75 0
-95 148 c-53 81 -108 159 -124 174 -36 34 -92 58 -138 58 l-35 0 0 -190 0
-190 -60 0 -60 0 0 445 0 445 123 0 c67 -1 165 -5 218 -9z m880 -3 c9 -7 71
-180 140 -385 118 -358 124 -371 136 -340 6 18 64 187 129 377 65 190 119 347
121 350 7 8 152 9 157 1 3 -4 23 -191 45 -417 23 -225 42 -421 44 -436 3 -28
3 -28 -54 -28 l-57 0 -6 48 c-13 100 -45 373 -62 520 -10 83 -21 152 -24 152
-3 0 -47 -121 -98 -268 -51 -147 -108 -307 -125 -357 l-32 -90 -58 -3 c-31 -2
-57 -1 -57 1 0 3 -42 128 -94 278 -163 477 -166 484 -166 448 0 -14 -38 -393
-60 -599 -5 -52 -10 -103 -10 -112 0 -15 -10 -18 -60 -18 l-61 0 5 33 c3 17
11 93 16 167 6 74 18 209 25 300 8 91 17 197 20 235 3 39 8 89 11 113 l5 42
78 0 c47 0 83 -5 92 -12z m-8321 -1615 c0 -4 -29 -75 -64 -158 -582 -1363
-619 -1454 -670 -1632 -81 -281 -65 -411 67 -546 80 -82 165 -118 379 -162
129 -26 353 -55 426 -55 l42 0 0 -110 0 -110 -1110 0 -1111 0 3 106 3 106 95
24 c196 50 312 131 424 298 98 146 157 276 346 756 135 342 587 1467 595 1480
7 12 575 14 575 3z m4021 -43 c10 -25 115 -297 234 -605 119 -308 271 -704
337 -880 199 -531 246 -620 400 -772 120 -118 181 -168 243 -198 55 -27 168
-55 228 -55 l37 0 0 -110 0 -110 -1350 0 -1351 0 3 108 3 107 35 2 c220 16
398 51 507 102 82 39 174 130 211 208 25 53 27 68 27 178 0 66 -6 145 -14 175
-46 190 -118 401 -225 653 -280 663 -516 1229 -516 1239 0 4 264 7 587 6 l587
-3 17 -45z m3752 -852 c4 -876 8 -978 38 -1148 35 -193 120 -300 319 -400 172
-86 278 -108 553 -117 l207 -6 0 -104 0 -103 -1590 0 -1590 0 0 104 0 103 138
8 c298 15 464 71 605 204 98 93 130 152 163 309 39 187 44 316 44 1200 l0 852
554 0 555 0 4 -902z"/>
<path d="M10611 8130 c-131 -27 -210 -126 -233 -292 -25 -180 41 -337 170
-399 38 -18 64 -23 132 -23 68 0 94 5 132 23 148 72 211 274 152 488 -40 144
-197 235 -353 203z"/>
<path d="M2692 8074 c-6 -28 -38 -125 -72 -214 -33 -90 -60 -165 -60 -167 0
-2 68 -3 150 -3 83 0 150 1 150 3 0 2 -31 86 -69 188 -38 101 -73 198 -78 214
-10 30 -10 30 -21 -21z"/>
<path d="M11630 7975 l0 -145 106 0 c128 0 175 13 214 57 25 28 30 43 30 84 0
65 -21 104 -70 129 -33 17 -59 20 -160 20 l-120 0 0 -145z"/>
</g>
</svg>
